<svg width="37" height="37" viewBox="0 0 37 37" fill="none" xmlns="http://www.w3.org/2000/svg">
<circle cx="18.007" cy="18.007" r="18" transform="rotate(0.0224377 18.007 18.007)" fill="#C6AC89"/>
<g clip-path="url(#clip0_290_262)">
<path d="M17.8695 11.0144C18.2941 10.9868 18.9337 11.0403 19.3569 11.1176C20.7715 11.3746 22.0669 12.0781 23.054 13.1254C24.2373 14.3603 24.9737 16.0405 25.0035 17.7538C25.0128 18.2784 25.0092 18.7828 24.913 19.2994C24.6254 20.8602 23.8069 22.2728 22.5968 23.297C22.4597 23.4121 22.3111 23.541 22.1649 23.6434C21.9608 23.7863 21.7423 23.911 21.5332 24.0466C21.4543 24.0978 21.3666 24.1528 21.2831 24.1955C21.0754 24.2947 20.8612 24.3944 20.6491 24.4838C19.6458 24.9067 18.2747 25.1247 17.2123 24.9241C16.9894 24.8624 16.7347 24.8266 16.5117 24.7619C16.096 24.6412 15.3363 24.2064 15.0124 23.9357C14.9306 24.1365 14.7761 24.2484 14.6001 24.3651C14.4886 24.4347 14.3689 24.5375 14.2514 24.5935C13.6927 24.8602 12.8043 25.2374 12.2387 24.816C12.0063 24.6428 12.0389 24.2192 12.0206 23.9622C12.0131 23.8553 12.0021 23.7595 11.9867 23.6532C11.9001 23.0463 11.7852 22.4438 11.6424 21.8477C11.6256 21.7801 11.6055 21.7064 11.5843 21.6406C11.3757 20.9945 11.2634 20.3474 11.1392 19.6825C10.495 16.2342 12.2351 12.5808 15.6547 11.4261C16.4295 11.1645 17.072 11.0907 17.8695 11.0144ZM16.1331 20.9805C16.2827 21.0185 16.4665 21.1332 16.61 21.2017C16.8875 21.3342 17.3547 21.5118 17.6569 21.5322C18.6895 21.6191 19.6037 21.3238 20.3905 20.6409C20.7016 20.3708 20.9491 20.0559 21.1542 19.6992C22.5408 17.2876 20.6349 14.3483 17.8636 14.4437C16.7499 14.4838 15.8566 15.0303 15.2307 15.9376C14.4943 16.9789 14.4162 18.2635 14.4891 19.4974C14.5252 20.1083 14.6534 20.6617 14.8819 21.2286C15.2046 22.0291 15.7085 21.2195 16.1331 20.9805Z" stroke="#201F1D"/>
</g>
<defs>
<clipPath id="clip0_290_262">
<rect width="16" height="16" fill="white" transform="translate(10.0102 10.0039) rotate(0.0224377)"/>
</clipPath>
</defs>
</svg>
