<svg width="37" height="37" viewBox="0 0 37 37" fill="none" xmlns="http://www.w3.org/2000/svg">
<circle cx="18.007" cy="18.007" r="18" transform="rotate(0.0224377 18.007 18.007)" fill="#C6AC89"/>
<path d="M20.0076 16.7564L20.009 13.0607C20.0094 12.2281 19.8583 12.0606 19.029 12.0603L16.6791 12.0066C15.9475 12.0063 15.5818 12.0062 15.4338 12.2433C15.2859 12.4803 15.4493 12.8047 15.7762 13.4535C15.9578 13.8138 16.0548 14.0747 16.0546 14.4785L16.0536 17.1378C16.0533 17.9788 16.0531 18.3992 15.7335 18.5239C15.414 18.6485 15.1485 18.3661 14.6177 17.8014C13.3166 16.4171 12.6398 14.6892 12.1952 12.8061C12.1031 12.4161 12.057 12.2211 11.9194 12.1129C11.7818 12.0047 11.5858 12.0046 11.1937 12.0045L8.99438 12.0036C8.51188 12.0034 8.27063 12.0033 8.11986 12.1739C7.9691 12.3444 7.99823 12.562 8.0565 12.9972C8.5822 16.9241 12.033 23.3642 18.4122 23.9809C19.542 24.0901 20.0048 23.7849 20.0053 22.547C20.0056 21.8452 19.9912 20.7107 20.8743 20.5624C21.3367 20.4847 21.6481 20.649 22.1653 21.0831C23.0611 21.835 23.53 22.7526 23.8567 23.4499C24.0734 23.9126 24.2346 24.0095 24.7443 24.0097L26.8186 24.0105C27.8665 24.0109 28.1522 23.7552 27.6858 22.7714C27.0953 21.5257 26.2545 20.5359 25.49 19.8769C24.855 19.3296 24.5375 19.0559 24.5199 18.8546C24.5022 18.6532 24.7353 18.3683 25.2016 17.7983C26.1024 16.6973 27.3285 14.9685 27.9012 13.1337C28.185 12.2248 27.9184 12.011 26.9975 12.0107L25.1343 12.0099C24.2318 12.0096 24.2325 11.9783 24.019 13.0022C23.6726 14.6635 22.5395 16.2599 21.4753 17.3466C20.9704 17.8621 20.6652 18.1725 20.3503 18.0459C20.0355 17.9192 20.0073 17.5316 20.0076 16.7564Z" stroke="#201F1D" stroke-linecap="round" stroke-linejoin="round"/>
</svg>
