<svg preserveAspectRatio="none" width="100%" height="100%" overflow="visible" style="display: block;" viewBox="0 0 42 28.2507" fill="none" xmlns="http://www.w3.org/2000/svg">
<g id="elements">
<path id="Vector" d="M1 4.75072H6.73005C8.18348 4.75072 9.57737 4.07629 10.6051 2.8758C12.0729 1.16132 14.2439 0.562645 16.2131 1.32939L19 2.41451M1 21.5635H4.24136C6.56033 21.5635 7.71982 21.5635 8.81624 21.8531C8.86954 21.8672 8.92268 21.8818 8.97565 21.8969C10.0652 22.2071 11.0299 22.79 12.9594 23.9558C16.7357 26.2375 18.6239 27.3783 20.6814 27.2394C20.7784 27.2328 20.8752 27.2241 20.9717 27.2133C23.0193 26.9839 24.6239 25.5296 27.8331 22.621L31 19.7507" stroke="#c6ac89" stroke-width="2" stroke-linecap="round"/>
<path id="Vector_2" d="M41 5.18917H35.9664C33.8349 5.18917 32.3298 4.10325 30.8007 2.65555C29.8102 1.71784 28.5461 1.1652 27.2175 1.08909C25.7321 1.004 24.0106 0.884194 22.568 1.25573C20.9623 1.66927 19.902 2.8019 18.7804 3.98563L15.8862 7.0403C14.7046 8.28737 14.7046 10.3093 15.8862 11.5563C16.906 12.6327 18.5039 12.7997 19.7039 11.9553C20.5674 11.3477 21.5486 10.3665 22.5661 10.0574C23.7114 9.70964 24.4218 10.491 25.0708 11.313L29.7112 17.1901C31.4333 19.3713 32.2944 20.4619 33.4716 21.0438C34.6488 21.6257 35.9938 21.6257 38.684 21.6257H41" stroke="#c6ac89" stroke-width="2" stroke-linecap="round"/>
</g>
</svg>
