<svg preserveAspectRatio="none" width="100%" height="100%" overflow="visible" style="display: block;" viewBox="0 0 38 42" fill="none" xmlns="http://www.w3.org/2000/svg">
<g id="elements">
<path id="Vector" d="M33 16V13.6C32.9839 7.99425 32.8102 5.0224 30.934 3.10883C28.8665 1 25.5387 1 18.8832 1L15.1184 1C8.46293 1 5.13519 1 3.0676 3.10883C1 5.21766 1 8.61177 1 15.4L1 24.6C1 31.3882 1 34.7823 3.06759 36.8912C4.9031 38.7633 7.73171 38.9734 13 38.997" stroke="#c6ac89" stroke-width="2" stroke-linecap="round"/>
<path id="Vector_2" d="M32.3506 36.3773L37 41M35 30C35 25.0294 30.9706 21 26 21C21.0294 21 17 25.0294 17 30C17 34.9706 21.0294 39 26 39C30.9706 39 35 34.9706 35 30Z" stroke="#c6ac89" stroke-width="2" stroke-linecap="round" stroke-linejoin="round"/>
<path id="Vector_3" d="M9 11H25" stroke="#c6ac89" stroke-width="2" stroke-linecap="round"/>
<path id="Vector_4" d="M9 19H15" stroke="#c6ac89" stroke-width="2" stroke-linecap="round"/>
</g>
</svg>
