<svg preserveAspectRatio="none" width="100%" height="100%" overflow="visible" style="display: block;" viewBox="0 0 42 42" fill="none" xmlns="http://www.w3.org/2000/svg">
<g id="elements">
<path id="Vector" d="M39 31L33 17L27 31" stroke="#c6ac89" stroke-width="2" stroke-linecap="round" stroke-linejoin="round"/>
<path id="Vector_2" d="M15 31L8.99999 17L2.99999 31" stroke="#c6ac89" stroke-width="2" stroke-linecap="round" stroke-linejoin="round"/>
<path id="Vector_3" d="M4.99999 17H7.09639C9.62331 17 12.075 15.5893 14.0482 13C18.1125 7.66667 23.8875 7.66667 27.9518 13C29.925 15.5893 32.3767 17 34.9036 17H37" stroke="#c6ac89" stroke-width="2" stroke-linecap="round" stroke-linejoin="round"/>
<path id="Vector_4" d="M33 41C36.1207 41 38.8364 38.8966 40.2362 35.7949C40.9413 34.2322 41.2939 33.4509 40.6953 32.2255C40.0966 31 39.105 31 37.1219 31H28.8781C26.895 31 25.9034 31 25.3047 32.2255C24.706 33.4509 25.0586 34.2322 25.7638 35.7949C27.1636 38.8966 29.8793 41 33 41Z" stroke="#c6ac89" stroke-width="2"/>
<path id="Vector_5" d="M8.99999 41C12.1207 41 14.8364 38.8966 16.2362 35.7949C16.9413 34.2322 17.2939 33.4509 16.6953 32.2255C16.0966 31 15.105 31 13.1219 31H4.87805C2.89496 31 1.90341 31 1.30472 32.2255C0.706033 33.4509 1.05863 34.2322 1.76381 35.7949C3.16359 38.8966 5.87929 41 8.99999 41Z" stroke="#c6ac89" stroke-width="2"/>
<path id="Vector_6" d="M25 5C25 7.20914 23.2091 9 21 9C18.7908 9 17 7.20914 17 5C17 2.79086 18.7908 1 21 1C23.2091 1 25 2.79086 25 5Z" stroke="#c6ac89" stroke-width="2"/>
</g>
</svg>
