<svg preserveAspectRatio="none" width="100%" height="100%" overflow="visible" style="display: block;" viewBox="0 0 42.0002 42.0002" fill="none" xmlns="http://www.w3.org/2000/svg">
<g id="elements">
<path id="Vector" d="M17 20.2094L7.14998 31.7725C5.82823 33.3241 3.46403 33.4185 2.02276 31.9772C0.581489 30.536 0.675907 28.1718 2.22752 26.85L13.7906 17" stroke="#c6ac89" stroke-width="2" stroke-linejoin="round"/>
<path id="Vector_2" d="M33 17.0952L23.0952 27M16.9048 1L7.00001 10.9048M15.6667 2.23803L8.23817 9.6666C8.23817 9.6666 11.9525 14.619 15.6667 18.3333C19.381 22.0476 24.3334 25.7618 24.3334 25.7618L31.762 18.3333C31.762 18.3333 28.0477 13.3809 24.3334 9.6666C20.6191 5.95232 15.6667 2.23803 15.6667 2.23803Z" stroke="#c6ac89" stroke-width="2" stroke-linecap="round" stroke-linejoin="round"/>
<path id="Vector_3" d="M20.3481 40.5144C20.0799 40.9971 20.2538 41.6059 20.7366 41.8742C21.2194 42.1424 21.8282 41.9684 22.0964 41.4856L21.2222 41L20.3481 40.5144ZM22.5679 38.5777L23.4421 39.0633V39.0633L22.5679 38.5777ZM35.9036 41.4856C36.1718 41.9684 36.7806 42.1424 37.2634 41.8742C37.7462 41.6059 37.9202 40.9971 37.6519 40.5144L36.7778 41L35.9036 41.4856ZM35.4321 38.5777L36.3062 38.0921V38.0921L35.4321 38.5777ZM33.7756 36.1145L34.4294 35.3579L34.4294 35.3579L33.7756 36.1145ZM32.1887 35.2318L31.8835 36.1841V36.1841L32.1887 35.2318ZM24.2244 36.1145L23.5706 35.3579L23.5706 35.3579L24.2244 36.1145ZM25.8113 35.2318L25.5061 34.2795V34.2795L25.8113 35.2318ZM19 40C18.4477 40 18 40.4477 18 41C18 41.5523 18.4477 42 19 42L19 41L19 40ZM39 42C39.5523 42 40 41.5523 40 41C40 40.4477 39.5523 40 39 40L39 41V42ZM21.2222 41L22.0964 41.4856L23.4421 39.0633L22.5679 38.5777L21.6938 38.0921L20.3481 40.5144L21.2222 41ZM36.7778 41L37.6519 40.5144L36.3062 38.0921L35.4321 38.5777L34.5579 39.0633L35.9036 41.4856L36.7778 41ZM35.4321 38.5777L36.3062 38.0921C35.6066 36.8327 35.1488 35.9794 34.4294 35.3579L33.7756 36.1145L33.1218 36.8712C33.5102 37.2067 33.7875 37.6766 34.5579 39.0634L35.4321 38.5777ZM29 35V36C30.712 36 31.3448 36.0115 31.8835 36.1841L32.1887 35.2318L32.4939 34.2795C31.586 33.9885 30.5752 34 29 34V35ZM33.7756 36.1145L34.4294 35.3579C33.8701 34.8746 33.2096 34.5089 32.4939 34.2795L32.1887 35.2318L31.8835 36.1841C32.3527 36.3345 32.7739 36.5706 33.1218 36.8712L33.7756 36.1145ZM22.5679 38.5777L23.4421 39.0633C24.2125 37.6766 24.4898 37.2067 24.8782 36.8712L24.2244 36.1145L23.5706 35.3579C22.8512 35.9794 22.3935 36.8327 21.6938 38.0921L22.5679 38.5777ZM29 35V34C27.4248 34 26.414 33.9885 25.5061 34.2795L25.8113 35.2318L26.1165 36.1841C26.6552 36.0115 27.288 36 29 36V35ZM24.2244 36.1145L24.8782 36.8712C25.2261 36.5706 25.6474 36.3345 26.1165 36.1841L25.8113 35.2318L25.5061 34.2795C24.7904 34.5089 24.1299 34.8746 23.5706 35.3579L24.2244 36.1145ZM19 41L19 42L39 42V41L39 40L19 40L19 41Z" fill="#c6ac89"/>
<path id="Vector_4" d="M37 20.2727L41 17M37 26.8182L41 29" stroke="#c6ac89" stroke-width="2" stroke-linecap="round" stroke-linejoin="round"/>
</g>
</svg>
