<svg width="16" height="16" viewBox="0 0 16 16" fill="none" xmlns="http://www.w3.org/2000/svg">
<g clip-path="url(#clip0_240_111)">
<path d="M7.85983 1.00744C8.28444 0.979706 8.92401 1.03296 9.34724 1.11001C10.7619 1.36649 12.0576 2.06954 13.0451 3.11643C14.229 4.35089 14.9659 6.03071 14.9965 7.74407C15.0059 8.26865 15.0025 8.77307 14.9065 9.28973C14.6195 10.8506 13.8016 12.2635 12.592 13.2882C12.4549 13.4034 12.3063 13.5323 12.1602 13.6347C11.9561 13.7777 11.7376 13.9025 11.5286 14.0382C11.4497 14.0894 11.362 14.1445 11.2786 14.1872C11.0709 14.2865 10.8567 14.3863 10.6447 14.4758C9.64154 14.899 8.27056 15.1176 7.20806 14.9174C6.98514 14.8558 6.73042 14.8201 6.50734 14.7555C6.09167 14.635 5.33174 14.2004 5.00781 13.9299C4.92601 14.1307 4.77162 14.2427 4.59559 14.3594C4.48411 14.4291 4.36449 14.5319 4.24701 14.588C3.68842 14.8549 2.80016 15.2324 2.23437 14.8112C2.00198 14.6382 2.03435 14.2145 2.01601 13.9575C2.00839 13.8507 1.99737 13.7548 1.98199 13.6486C1.89516 13.0417 1.78 12.4393 1.6369 11.8432C1.62013 11.7756 1.6 11.7019 1.57873 11.6361C1.36995 10.9901 1.25737 10.3431 1.13289 9.6782C0.48735 6.23009 2.22597 2.57603 5.64518 1.42005C6.41987 1.15814 7.06229 1.08402 7.85983 1.00744ZM6.12731 10.9742C6.27691 11.0122 6.46081 11.1267 6.60431 11.1952C6.88189 11.3276 7.34909 11.505 7.65127 11.5253C8.68395 11.6119 9.59803 11.3162 10.3846 10.6329C10.6956 10.3628 10.943 10.0477 11.1479 9.69094C12.5336 7.27882 10.6265 4.34031 7.85528 4.43676C6.74153 4.47733 5.8485 5.02417 5.22294 5.93172C4.48693 6.97324 4.4093 8.25791 4.48269 9.49177C4.51903 10.1027 4.64748 10.656 4.87619 11.2228C5.19921 12.0232 5.70279 11.2133 6.12731 10.9742Z" stroke="#E5E0CC" stroke-width="1.5" stroke-linecap="round" stroke-linejoin="round"/>
</g>
<defs>
<clipPath id="clip0_240_111">
<rect width="16" height="16" fill="white"/>
</clipPath>
</defs>
</svg>
